M48
; DRILL file {KiCad (5.1.6)-1} date 07/15/20 15:36:21
; FORMAT={-:-/ absolute / metric / decimal}
; #@! TF.CreationDate,2020-07-15T15:36:21+02:00
; #@! TF.GenerationSoftware,Kicad,Pcbnew,(5.1.6)-1
; #@! TF.FileFunction,Plated,1,2,PTH
FMAT,2
METRIC
T1C0.400
T2C0.600
T3C1.000
%
G90
G05
T1
X106.68Y-121.92
T2
X106.045Y-125.73
X107.545Y-125.73
T3
X99.695Y-73.025
X99.695Y-75.565
X99.695Y-78.105
X99.695Y-80.645
X99.695Y-83.185
X99.695Y-85.725
X99.695Y-88.265
X99.695Y-90.805
X99.695Y-93.345
X99.695Y-95.885
X99.695Y-98.425
X99.695Y-100.965
X99.695Y-103.505
X99.695Y-106.045
X99.695Y-108.585
X99.695Y-111.125
X99.695Y-113.665
X99.695Y-116.205
X99.695Y-118.745
X99.695Y-121.285
X99.695Y-123.825
X99.695Y-126.365
X99.695Y-128.905
X99.695Y-131.445
X105.41Y-73.025
X105.41Y-75.565
X105.41Y-78.105
X105.41Y-80.645
X105.41Y-83.185
X105.41Y-85.725
X105.41Y-88.265
X105.41Y-90.805
X105.41Y-93.345
X105.41Y-95.885
X105.41Y-98.425
X105.41Y-100.965
X105.41Y-103.505
X105.41Y-106.045
X105.41Y-108.585
X105.41Y-111.125
X105.41Y-113.665
X105.41Y-116.205
X107.95Y-73.025
X107.95Y-75.565
X107.95Y-78.105
X107.95Y-80.645
X107.95Y-83.185
X107.95Y-85.725
X107.95Y-88.265
X107.95Y-90.805
X107.95Y-93.345
X107.95Y-95.885
X107.95Y-98.425
X107.95Y-100.965
X107.95Y-103.505
X107.95Y-106.045
X107.95Y-108.585
X107.95Y-111.125
X107.95Y-113.665
X107.95Y-116.205
X113.665Y-73.025
X113.665Y-75.565
X113.665Y-78.105
X113.665Y-80.645
X113.665Y-83.185
X113.665Y-85.725
X113.665Y-88.265
X113.665Y-90.805
X113.665Y-93.345
X113.665Y-95.885
X113.665Y-98.425
X113.665Y-100.965
X113.665Y-103.505
X113.665Y-106.045
X113.665Y-108.585
X113.665Y-111.125
X113.665Y-113.665
X113.665Y-116.205
X113.665Y-118.745
X113.665Y-121.285
X113.665Y-123.825
X113.665Y-126.365
X113.665Y-128.905
X113.665Y-131.445
T0
M30
