G04 #@! TF.GenerationSoftware,KiCad,Pcbnew,(5.1.6)-1*
G04 #@! TF.CreationDate,2020-07-15T15:37:22+02:00*
G04 #@! TF.ProjectId,PCB_intermedia,5043425f-696e-4746-9572-6d656469612e,rev?*
G04 #@! TF.SameCoordinates,Original*
G04 #@! TF.FileFunction,Copper,L2,Bot*
G04 #@! TF.FilePolarity,Positive*
%FSLAX46Y46*%
G04 Gerber Fmt 4.6, Leading zero omitted, Abs format (unit mm)*
G04 Created by KiCad (PCBNEW (5.1.6)-1) date 2020-07-15 15:37:22*
%MOMM*%
%LPD*%
G01*
G04 APERTURE LIST*
G04 #@! TA.AperFunction,ComponentPad*
%ADD10C,1.200000*%
G04 #@! TD*
G04 #@! TA.AperFunction,ComponentPad*
%ADD11O,1.700000X1.700000*%
G04 #@! TD*
G04 #@! TA.AperFunction,ComponentPad*
%ADD12R,1.700000X1.700000*%
G04 #@! TD*
G04 #@! TA.AperFunction,ViaPad*
%ADD13C,0.800000*%
G04 #@! TD*
G04 #@! TA.AperFunction,Conductor*
%ADD14C,0.250000*%
G04 #@! TD*
G04 APERTURE END LIST*
D10*
X106045000Y-125730000D03*
X107545000Y-125730000D03*
D11*
X99695000Y-131445000D03*
X99695000Y-128905000D03*
X99695000Y-126365000D03*
X99695000Y-123825000D03*
X99695000Y-121285000D03*
X99695000Y-118745000D03*
X99695000Y-116205000D03*
X99695000Y-113665000D03*
X99695000Y-111125000D03*
X99695000Y-108585000D03*
X99695000Y-106045000D03*
X99695000Y-103505000D03*
X99695000Y-100965000D03*
X99695000Y-98425000D03*
X99695000Y-95885000D03*
X99695000Y-93345000D03*
X99695000Y-90805000D03*
X99695000Y-88265000D03*
X99695000Y-85725000D03*
X99695000Y-83185000D03*
X99695000Y-80645000D03*
X99695000Y-78105000D03*
X99695000Y-75565000D03*
D12*
X99695000Y-73025000D03*
X113665000Y-131445000D03*
D11*
X113665000Y-128905000D03*
X113665000Y-126365000D03*
X113665000Y-123825000D03*
X113665000Y-121285000D03*
X113665000Y-118745000D03*
X113665000Y-116205000D03*
X113665000Y-113665000D03*
X113665000Y-111125000D03*
X113665000Y-108585000D03*
X113665000Y-106045000D03*
X113665000Y-103505000D03*
X113665000Y-100965000D03*
X113665000Y-98425000D03*
X113665000Y-95885000D03*
X113665000Y-93345000D03*
X113665000Y-90805000D03*
X113665000Y-88265000D03*
X113665000Y-85725000D03*
X113665000Y-83185000D03*
X113665000Y-80645000D03*
X113665000Y-78105000D03*
X113665000Y-75565000D03*
X113665000Y-73025000D03*
D12*
X105410000Y-116205000D03*
D11*
X107950000Y-116205000D03*
X105410000Y-113665000D03*
X107950000Y-113665000D03*
X105410000Y-111125000D03*
X107950000Y-111125000D03*
X105410000Y-108585000D03*
X107950000Y-108585000D03*
X105410000Y-106045000D03*
X107950000Y-106045000D03*
X105410000Y-103505000D03*
X107950000Y-103505000D03*
X105410000Y-100965000D03*
X107950000Y-100965000D03*
X105410000Y-98425000D03*
X107950000Y-98425000D03*
X105410000Y-95885000D03*
X107950000Y-95885000D03*
X105410000Y-93345000D03*
X107950000Y-93345000D03*
X105410000Y-90805000D03*
X107950000Y-90805000D03*
X105410000Y-88265000D03*
X107950000Y-88265000D03*
X105410000Y-85725000D03*
X107950000Y-85725000D03*
X105410000Y-83185000D03*
X107950000Y-83185000D03*
X105410000Y-80645000D03*
X107950000Y-80645000D03*
X105410000Y-78105000D03*
X107950000Y-78105000D03*
X105410000Y-75565000D03*
X107950000Y-75565000D03*
X105410000Y-73025000D03*
X107950000Y-73025000D03*
D13*
X106680000Y-121920000D03*
D14*
X104207919Y-113665000D02*
X105410000Y-113665000D01*
X104140000Y-113732919D02*
X104207919Y-113665000D01*
X104140000Y-119380000D02*
X104140000Y-113732919D01*
X106680000Y-121920000D02*
X104140000Y-119380000D01*
M02*
