G04 #@! TF.GenerationSoftware,KiCad,Pcbnew,(5.1.6)-1*
G04 #@! TF.CreationDate,2020-07-15T15:37:22+02:00*
G04 #@! TF.ProjectId,PCB_intermedia,5043425f-696e-4746-9572-6d656469612e,rev?*
G04 #@! TF.SameCoordinates,Original*
G04 #@! TF.FileFunction,Legend,Top*
G04 #@! TF.FilePolarity,Positive*
%FSLAX46Y46*%
G04 Gerber Fmt 4.6, Leading zero omitted, Abs format (unit mm)*
G04 Created by KiCad (PCBNEW (5.1.6)-1) date 2020-07-15 15:37:22*
%MOMM*%
%LPD*%
G01*
G04 APERTURE LIST*
%ADD10C,0.150000*%
%ADD11C,0.250000*%
%ADD12C,0.300000*%
%ADD13C,0.120000*%
G04 APERTURE END LIST*
D10*
X112903095Y-134120000D02*
X112807857Y-134072380D01*
X112665000Y-134072380D01*
X112522142Y-134120000D01*
X112426904Y-134215238D01*
X112379285Y-134310476D01*
X112331666Y-134500952D01*
X112331666Y-134643809D01*
X112379285Y-134834285D01*
X112426904Y-134929523D01*
X112522142Y-135024761D01*
X112665000Y-135072380D01*
X112760238Y-135072380D01*
X112903095Y-135024761D01*
X112950714Y-134977142D01*
X112950714Y-134643809D01*
X112760238Y-134643809D01*
X113379285Y-135072380D02*
X113379285Y-134072380D01*
X113950714Y-135072380D01*
X113950714Y-134072380D01*
X114426904Y-135072380D02*
X114426904Y-134072380D01*
X114665000Y-134072380D01*
X114807857Y-134120000D01*
X114903095Y-134215238D01*
X114950714Y-134310476D01*
X114998333Y-134500952D01*
X114998333Y-134643809D01*
X114950714Y-134834285D01*
X114903095Y-134929523D01*
X114807857Y-135024761D01*
X114665000Y-135072380D01*
X114426904Y-135072380D01*
X98361666Y-134072380D02*
X98695000Y-135072380D01*
X99028333Y-134072380D01*
X99933095Y-134977142D02*
X99885476Y-135024761D01*
X99742619Y-135072380D01*
X99647380Y-135072380D01*
X99504523Y-135024761D01*
X99409285Y-134929523D01*
X99361666Y-134834285D01*
X99314047Y-134643809D01*
X99314047Y-134500952D01*
X99361666Y-134310476D01*
X99409285Y-134215238D01*
X99504523Y-134120000D01*
X99647380Y-134072380D01*
X99742619Y-134072380D01*
X99885476Y-134120000D01*
X99933095Y-134167619D01*
X100933095Y-134977142D02*
X100885476Y-135024761D01*
X100742619Y-135072380D01*
X100647380Y-135072380D01*
X100504523Y-135024761D01*
X100409285Y-134929523D01*
X100361666Y-134834285D01*
X100314047Y-134643809D01*
X100314047Y-134500952D01*
X100361666Y-134310476D01*
X100409285Y-134215238D01*
X100504523Y-134120000D01*
X100647380Y-134072380D01*
X100742619Y-134072380D01*
X100885476Y-134120000D01*
X100933095Y-134167619D01*
D11*
X101308080Y-65492380D02*
X101879508Y-65492380D01*
X101468794Y-66492380D02*
X101593794Y-65492380D01*
X102486651Y-65968571D02*
X102153318Y-65968571D01*
X102087842Y-66492380D02*
X102212842Y-65492380D01*
X102689032Y-65492380D01*
X103587842Y-65540000D02*
X103498556Y-65492380D01*
X103355699Y-65492380D01*
X103206889Y-65540000D01*
X103099747Y-65635238D01*
X103040223Y-65730476D01*
X102968794Y-65920952D01*
X102950937Y-66063809D01*
X102974747Y-66254285D01*
X103010461Y-66349523D01*
X103093794Y-66444761D01*
X103230699Y-66492380D01*
X103325937Y-66492380D01*
X103474747Y-66444761D01*
X103528318Y-66397142D01*
X103569985Y-66063809D01*
X103379508Y-66063809D01*
X104772366Y-65587619D02*
X104825937Y-65540000D01*
X104927127Y-65492380D01*
X105165223Y-65492380D01*
X105254508Y-65540000D01*
X105296175Y-65587619D01*
X105331889Y-65682857D01*
X105319985Y-65778095D01*
X105254508Y-65920952D01*
X104611651Y-66492380D01*
X105230699Y-66492380D01*
X105974747Y-65492380D02*
X106069985Y-65492380D01*
X106159270Y-65540000D01*
X106200937Y-65587619D01*
X106236651Y-65682857D01*
X106260461Y-65873333D01*
X106230699Y-66111428D01*
X106159270Y-66301904D01*
X106099747Y-66397142D01*
X106046175Y-66444761D01*
X105944985Y-66492380D01*
X105849747Y-66492380D01*
X105760461Y-66444761D01*
X105718794Y-66397142D01*
X105683080Y-66301904D01*
X105659270Y-66111428D01*
X105689032Y-65873333D01*
X105760461Y-65682857D01*
X105819985Y-65587619D01*
X105873556Y-65540000D01*
X105974747Y-65492380D01*
X107135461Y-66492380D02*
X106564032Y-66492380D01*
X106849747Y-66492380D02*
X106974747Y-65492380D01*
X106861651Y-65635238D01*
X106754508Y-65730476D01*
X106653318Y-65778095D01*
X107611651Y-66492380D02*
X107802127Y-66492380D01*
X107903318Y-66444761D01*
X107956889Y-66397142D01*
X108069985Y-66254285D01*
X108141413Y-66063809D01*
X108189032Y-65682857D01*
X108153318Y-65587619D01*
X108111651Y-65540000D01*
X108022366Y-65492380D01*
X107831889Y-65492380D01*
X107730699Y-65540000D01*
X107677127Y-65587619D01*
X107617604Y-65682857D01*
X107587842Y-65920952D01*
X107623556Y-66016190D01*
X107665223Y-66063809D01*
X107754508Y-66111428D01*
X107944985Y-66111428D01*
X108046175Y-66063809D01*
X108099747Y-66016190D01*
X108159270Y-65920952D01*
X108564032Y-66111428D02*
X109325937Y-66111428D01*
X109819985Y-65587619D02*
X109873556Y-65540000D01*
X109974747Y-65492380D01*
X110212842Y-65492380D01*
X110302127Y-65540000D01*
X110343794Y-65587619D01*
X110379508Y-65682857D01*
X110367604Y-65778095D01*
X110302127Y-65920952D01*
X109659270Y-66492380D01*
X110278318Y-66492380D01*
X111022366Y-65492380D02*
X111117604Y-65492380D01*
X111206889Y-65540000D01*
X111248556Y-65587619D01*
X111284270Y-65682857D01*
X111308080Y-65873333D01*
X111278318Y-66111428D01*
X111206889Y-66301904D01*
X111147366Y-66397142D01*
X111093794Y-66444761D01*
X110992604Y-66492380D01*
X110897366Y-66492380D01*
X110808080Y-66444761D01*
X110766413Y-66397142D01*
X110730699Y-66301904D01*
X110706889Y-66111428D01*
X110736651Y-65873333D01*
X110808080Y-65682857D01*
X110867604Y-65587619D01*
X110921175Y-65540000D01*
X111022366Y-65492380D01*
X111724747Y-65587619D02*
X111778318Y-65540000D01*
X111879508Y-65492380D01*
X112117604Y-65492380D01*
X112206889Y-65540000D01*
X112248556Y-65587619D01*
X112284270Y-65682857D01*
X112272366Y-65778095D01*
X112206889Y-65920952D01*
X111564032Y-66492380D01*
X112183080Y-66492380D01*
X112927127Y-65492380D02*
X113022366Y-65492380D01*
X113111651Y-65540000D01*
X113153318Y-65587619D01*
X113189032Y-65682857D01*
X113212842Y-65873333D01*
X113183080Y-66111428D01*
X113111651Y-66301904D01*
X113052127Y-66397142D01*
X112998556Y-66444761D01*
X112897366Y-66492380D01*
X112802127Y-66492380D01*
X112712842Y-66444761D01*
X112671175Y-66397142D01*
X112635461Y-66301904D01*
X112611651Y-66111428D01*
X112641413Y-65873333D01*
X112712842Y-65682857D01*
X112772366Y-65587619D01*
X112825937Y-65540000D01*
X112927127Y-65492380D01*
D12*
X104239285Y-62678571D02*
X104203571Y-62964285D01*
X104810714Y-62678571D02*
X104775000Y-62964285D01*
X106123214Y-64178571D02*
X105712500Y-63464285D01*
X105266071Y-64178571D02*
X105453571Y-62678571D01*
X106025000Y-62678571D01*
X106158928Y-62750000D01*
X106221428Y-62821428D01*
X106275000Y-62964285D01*
X106248214Y-63178571D01*
X106158928Y-63321428D01*
X106078571Y-63392857D01*
X105926785Y-63464285D01*
X105355357Y-63464285D01*
X107730357Y-62750000D02*
X107596428Y-62678571D01*
X107382142Y-62678571D01*
X107158928Y-62750000D01*
X106998214Y-62892857D01*
X106908928Y-63035714D01*
X106801785Y-63321428D01*
X106775000Y-63535714D01*
X106810714Y-63821428D01*
X106864285Y-63964285D01*
X106989285Y-64107142D01*
X107194642Y-64178571D01*
X107337500Y-64178571D01*
X107560714Y-64107142D01*
X107641071Y-64035714D01*
X107703571Y-63535714D01*
X107417857Y-63535714D01*
X108864285Y-63392857D02*
X109069642Y-63464285D01*
X109132142Y-63535714D01*
X109185714Y-63678571D01*
X109158928Y-63892857D01*
X109069642Y-64035714D01*
X108989285Y-64107142D01*
X108837500Y-64178571D01*
X108266071Y-64178571D01*
X108453571Y-62678571D01*
X108953571Y-62678571D01*
X109087500Y-62750000D01*
X109150000Y-62821428D01*
X109203571Y-62964285D01*
X109185714Y-63107142D01*
X109096428Y-63250000D01*
X109016071Y-63321428D01*
X108864285Y-63392857D01*
X108364285Y-63392857D01*
X109882142Y-62678571D02*
X109846428Y-62964285D01*
X110453571Y-62678571D02*
X110417857Y-62964285D01*
X117046428Y-72068571D02*
X117046428Y-73068571D01*
X116689285Y-71497142D02*
X116332142Y-72568571D01*
X117260714Y-72568571D01*
X118046428Y-72211428D02*
X117903571Y-72140000D01*
X117832142Y-72068571D01*
X117760714Y-71925714D01*
X117760714Y-71854285D01*
X117832142Y-71711428D01*
X117903571Y-71640000D01*
X118046428Y-71568571D01*
X118332142Y-71568571D01*
X118475000Y-71640000D01*
X118546428Y-71711428D01*
X118617857Y-71854285D01*
X118617857Y-71925714D01*
X118546428Y-72068571D01*
X118475000Y-72140000D01*
X118332142Y-72211428D01*
X118046428Y-72211428D01*
X117903571Y-72282857D01*
X117832142Y-72354285D01*
X117760714Y-72497142D01*
X117760714Y-72782857D01*
X117832142Y-72925714D01*
X117903571Y-72997142D01*
X118046428Y-73068571D01*
X118332142Y-73068571D01*
X118475000Y-72997142D01*
X118546428Y-72925714D01*
X118617857Y-72782857D01*
X118617857Y-72497142D01*
X118546428Y-72354285D01*
X118475000Y-72282857D01*
X118332142Y-72211428D01*
X96948571Y-73068571D02*
X96091428Y-73068571D01*
X96520000Y-73068571D02*
X96520000Y-71568571D01*
X96377142Y-71782857D01*
X96234285Y-71925714D01*
X96091428Y-71997142D01*
X116332142Y-131401428D02*
X116403571Y-131330000D01*
X116546428Y-131258571D01*
X116903571Y-131258571D01*
X117046428Y-131330000D01*
X117117857Y-131401428D01*
X117189285Y-131544285D01*
X117189285Y-131687142D01*
X117117857Y-131901428D01*
X116260714Y-132758571D01*
X117189285Y-132758571D01*
X118546428Y-131258571D02*
X117832142Y-131258571D01*
X117760714Y-131972857D01*
X117832142Y-131901428D01*
X117975000Y-131830000D01*
X118332142Y-131830000D01*
X118475000Y-131901428D01*
X118546428Y-131972857D01*
X118617857Y-132115714D01*
X118617857Y-132472857D01*
X118546428Y-132615714D01*
X118475000Y-132687142D01*
X118332142Y-132758571D01*
X117975000Y-132758571D01*
X117832142Y-132687142D01*
X117760714Y-132615714D01*
X94742142Y-131401428D02*
X94813571Y-131330000D01*
X94956428Y-131258571D01*
X95313571Y-131258571D01*
X95456428Y-131330000D01*
X95527857Y-131401428D01*
X95599285Y-131544285D01*
X95599285Y-131687142D01*
X95527857Y-131901428D01*
X94670714Y-132758571D01*
X95599285Y-132758571D01*
X96885000Y-131758571D02*
X96885000Y-132758571D01*
X96527857Y-131187142D02*
X96170714Y-132258571D01*
X97099285Y-132258571D01*
D13*
X98365000Y-74295000D02*
X101025000Y-74295000D01*
X98365000Y-74295000D02*
X98365000Y-132775000D01*
X98365000Y-132775000D02*
X101025000Y-132775000D01*
X101025000Y-74295000D02*
X101025000Y-132775000D01*
X101025000Y-71695000D02*
X101025000Y-73025000D01*
X99695000Y-71695000D02*
X101025000Y-71695000D01*
X113665000Y-132775000D02*
X112335000Y-132775000D01*
X112335000Y-132775000D02*
X112335000Y-131445000D01*
X112335000Y-130175000D02*
X112335000Y-71695000D01*
X114995000Y-71695000D02*
X112335000Y-71695000D01*
X114995000Y-130175000D02*
X114995000Y-71695000D01*
X114995000Y-130175000D02*
X112335000Y-130175000D01*
D10*
X99361666Y-69707380D02*
X99361666Y-70421666D01*
X99314047Y-70564523D01*
X99218809Y-70659761D01*
X99075952Y-70707380D01*
X98980714Y-70707380D01*
X100361666Y-70707380D02*
X99790238Y-70707380D01*
X100075952Y-70707380D02*
X100075952Y-69707380D01*
X99980714Y-69850238D01*
X99885476Y-69945476D01*
X99790238Y-69993095D01*
X113331666Y-69937380D02*
X113331666Y-70651666D01*
X113284047Y-70794523D01*
X113188809Y-70889761D01*
X113045952Y-70937380D01*
X112950714Y-70937380D01*
X113760238Y-70032619D02*
X113807857Y-69985000D01*
X113903095Y-69937380D01*
X114141190Y-69937380D01*
X114236428Y-69985000D01*
X114284047Y-70032619D01*
X114331666Y-70127857D01*
X114331666Y-70223095D01*
X114284047Y-70365952D01*
X113712619Y-70937380D01*
X114331666Y-70937380D01*
M02*
